<mxfile host="app.diagrams.net" modified="2021-09-04T04:36:26.681Z" agent="5.0 (Windows NT 10.0; Win64; x64) AppleWebKit/537.36 (KHTML, like Gecko) Chrome/92.0.4515.159 Safari/537.36" etag="V83Yq8hOA8-n9vtpf74E" version="15.0.6" type="github">
  <diagram id="C5RBs43oDa-KdzZeNtuy" name="Page-1">
    <mxGraphModel dx="1422" dy="794" grid="1" gridSize="10" guides="1" tooltips="1" connect="1" arrows="1" fold="1" page="1" pageScale="1" pageWidth="827" pageHeight="1169" math="0" shadow="0">
      <root>
        <mxCell id="WIyWlLk6GJQsqaUBKTNV-0" />
        <mxCell id="WIyWlLk6GJQsqaUBKTNV-1" parent="WIyWlLk6GJQsqaUBKTNV-0" />
        <mxCell id="WIyWlLk6GJQsqaUBKTNV-3" value="Inicio." style="rounded=1;whiteSpace=wrap;html=1;fontSize=12;glass=0;strokeWidth=1;shadow=0;" parent="WIyWlLk6GJQsqaUBKTNV-1" vertex="1">
          <mxGeometry x="145" y="60" width="150" height="60" as="geometry" />
        </mxCell>
        <mxCell id="WIyWlLk6GJQsqaUBKTNV-10" value="Data é posterior&amp;nbsp;&lt;br&gt;ao&lt;br&gt;Dia 25?" style="rhombus;whiteSpace=wrap;html=1;shadow=0;fontFamily=Helvetica;fontSize=12;align=center;strokeWidth=1;spacing=6;spacingTop=-4;" parent="WIyWlLk6GJQsqaUBKTNV-1" vertex="1">
          <mxGeometry x="150" y="460" width="140" height="110" as="geometry" />
        </mxCell>
        <mxCell id="ysctN_I-61C0ipcnWa4--0" value="Cadastro é permitido &lt;br&gt;Até&amp;nbsp;25 de setembro.&lt;br&gt;Insira data:" style="shape=display;whiteSpace=wrap;html=1;" vertex="1" parent="WIyWlLk6GJQsqaUBKTNV-1">
          <mxGeometry x="135" y="190" width="170" height="60" as="geometry" />
        </mxCell>
        <mxCell id="ysctN_I-61C0ipcnWa4--3" value="" style="endArrow=classic;html=1;exitX=0.5;exitY=1;exitDx=0;exitDy=0;" edge="1" parent="WIyWlLk6GJQsqaUBKTNV-1" source="WIyWlLk6GJQsqaUBKTNV-3">
          <mxGeometry width="50" height="50" relative="1" as="geometry">
            <mxPoint x="185" y="180" as="sourcePoint" />
            <mxPoint x="220" y="190" as="targetPoint" />
          </mxGeometry>
        </mxCell>
        <mxCell id="ysctN_I-61C0ipcnWa4--4" value="" style="endArrow=classic;html=1;" edge="1" parent="WIyWlLk6GJQsqaUBKTNV-1" target="ysctN_I-61C0ipcnWa4--7">
          <mxGeometry width="50" height="50" relative="1" as="geometry">
            <mxPoint x="220" y="251" as="sourcePoint" />
            <mxPoint x="220" y="280" as="targetPoint" />
          </mxGeometry>
        </mxCell>
        <mxCell id="ysctN_I-61C0ipcnWa4--7" value="Data do cadastro:&lt;br&gt;XX de setembro." style="shape=manualInput;whiteSpace=wrap;html=1;" vertex="1" parent="WIyWlLk6GJQsqaUBKTNV-1">
          <mxGeometry x="157.5" y="280" width="125" height="80" as="geometry" />
        </mxCell>
        <mxCell id="ysctN_I-61C0ipcnWa4--8" value="" style="endArrow=classic;html=1;exitX=0.5;exitY=1;exitDx=0;exitDy=0;entryX=0.5;entryY=0;entryDx=0;entryDy=0;" edge="1" parent="WIyWlLk6GJQsqaUBKTNV-1" source="ysctN_I-61C0ipcnWa4--7" target="WIyWlLk6GJQsqaUBKTNV-10">
          <mxGeometry width="50" height="50" relative="1" as="geometry">
            <mxPoint x="390" y="300" as="sourcePoint" />
            <mxPoint x="440" y="250" as="targetPoint" />
          </mxGeometry>
        </mxCell>
        <mxCell id="ysctN_I-61C0ipcnWa4--9" value="" style="endArrow=classic;html=1;entryX=0;entryY=0.5;entryDx=0;entryDy=0;entryPerimeter=0;exitX=1;exitY=0.5;exitDx=0;exitDy=0;" edge="1" parent="WIyWlLk6GJQsqaUBKTNV-1" source="WIyWlLk6GJQsqaUBKTNV-10" target="ysctN_I-61C0ipcnWa4--11">
          <mxGeometry relative="1" as="geometry">
            <mxPoint x="280" y="585" as="sourcePoint" />
            <mxPoint x="219.5" y="710" as="targetPoint" />
          </mxGeometry>
        </mxCell>
        <mxCell id="ysctN_I-61C0ipcnWa4--10" value="Não" style="edgeLabel;resizable=0;html=1;align=center;verticalAlign=middle;" connectable="0" vertex="1" parent="ysctN_I-61C0ipcnWa4--9">
          <mxGeometry relative="1" as="geometry" />
        </mxCell>
        <mxCell id="ysctN_I-61C0ipcnWa4--11" value="Cadastro negado." style="shape=display;whiteSpace=wrap;html=1;" vertex="1" parent="WIyWlLk6GJQsqaUBKTNV-1">
          <mxGeometry x="510" y="485" width="120" height="60" as="geometry" />
        </mxCell>
        <mxCell id="ysctN_I-61C0ipcnWa4--13" value="" style="endArrow=classic;html=1;entryX=0;entryY=0;entryDx=60.625;entryDy=0;entryPerimeter=0;exitX=0.5;exitY=1;exitDx=0;exitDy=0;" edge="1" parent="WIyWlLk6GJQsqaUBKTNV-1" source="WIyWlLk6GJQsqaUBKTNV-10" target="ysctN_I-61C0ipcnWa4--21">
          <mxGeometry relative="1" as="geometry">
            <mxPoint x="220" y="615" as="sourcePoint" />
            <mxPoint x="380" y="584" as="targetPoint" />
            <Array as="points" />
          </mxGeometry>
        </mxCell>
        <mxCell id="ysctN_I-61C0ipcnWa4--19" value="Sim" style="edgeLabel;html=1;align=center;verticalAlign=middle;resizable=0;points=[];" vertex="1" connectable="0" parent="ysctN_I-61C0ipcnWa4--13">
          <mxGeometry x="0.2" relative="1" as="geometry">
            <mxPoint y="1" as="offset" />
          </mxGeometry>
        </mxCell>
        <mxCell id="ysctN_I-61C0ipcnWa4--21" value="Insira data de nascimento:" style="shape=display;whiteSpace=wrap;html=1;" vertex="1" parent="WIyWlLk6GJQsqaUBKTNV-1">
          <mxGeometry x="160" y="670" width="120" height="57.5" as="geometry" />
        </mxCell>
        <mxCell id="ysctN_I-61C0ipcnWa4--22" value="Data:&lt;br&gt;XXXX/XX/XX" style="shape=manualInput;whiteSpace=wrap;html=1;" vertex="1" parent="WIyWlLk6GJQsqaUBKTNV-1">
          <mxGeometry x="330" y="640" width="130" height="80" as="geometry" />
        </mxCell>
        <mxCell id="ysctN_I-61C0ipcnWa4--23" value="" style="endArrow=classic;html=1;exitX=1;exitY=0.5;exitDx=0;exitDy=0;exitPerimeter=0;entryX=0;entryY=0.75;entryDx=0;entryDy=0;" edge="1" parent="WIyWlLk6GJQsqaUBKTNV-1" source="ysctN_I-61C0ipcnWa4--21" target="ysctN_I-61C0ipcnWa4--22">
          <mxGeometry width="50" height="50" relative="1" as="geometry">
            <mxPoint x="390" y="500" as="sourcePoint" />
            <mxPoint x="440" y="450" as="targetPoint" />
          </mxGeometry>
        </mxCell>
        <mxCell id="ysctN_I-61C0ipcnWa4--26" value="" style="endArrow=classic;html=1;exitX=0.5;exitY=0;exitDx=0;exitDy=0;entryX=0;entryY=0;entryDx=60;entryDy=60;entryPerimeter=0;" edge="1" parent="WIyWlLk6GJQsqaUBKTNV-1" target="ysctN_I-61C0ipcnWa4--11">
          <mxGeometry relative="1" as="geometry">
            <mxPoint x="570" y="660" as="sourcePoint" />
            <mxPoint x="460" y="440" as="targetPoint" />
            <Array as="points" />
          </mxGeometry>
        </mxCell>
        <mxCell id="ysctN_I-61C0ipcnWa4--29" value="Não" style="edgeLabel;html=1;align=center;verticalAlign=middle;resizable=0;points=[];" vertex="1" connectable="0" parent="ysctN_I-61C0ipcnWa4--26">
          <mxGeometry x="0.2" y="3" relative="1" as="geometry">
            <mxPoint x="-6" y="3" as="offset" />
          </mxGeometry>
        </mxCell>
        <mxCell id="ysctN_I-61C0ipcnWa4--30" value="" style="endArrow=classic;html=1;exitX=1.008;exitY=0.613;exitDx=0;exitDy=0;exitPerimeter=0;entryX=0;entryY=0.5;entryDx=0;entryDy=0;" edge="1" parent="WIyWlLk6GJQsqaUBKTNV-1" source="ysctN_I-61C0ipcnWa4--22">
          <mxGeometry width="50" height="50" relative="1" as="geometry">
            <mxPoint x="390" y="470" as="sourcePoint" />
            <mxPoint x="510" y="690" as="targetPoint" />
          </mxGeometry>
        </mxCell>
        <mxCell id="ysctN_I-61C0ipcnWa4--31" value="" style="endArrow=classic;html=1;entryX=0;entryY=0.5;entryDx=0;entryDy=0;" edge="1" parent="WIyWlLk6GJQsqaUBKTNV-1" target="ysctN_I-61C0ipcnWa4--41">
          <mxGeometry relative="1" as="geometry">
            <mxPoint x="630" y="689.5" as="sourcePoint" />
            <mxPoint x="710" y="690" as="targetPoint" />
          </mxGeometry>
        </mxCell>
        <mxCell id="ysctN_I-61C0ipcnWa4--38" value="Sim" style="edgeLabel;html=1;align=center;verticalAlign=middle;resizable=0;points=[];" vertex="1" connectable="0" parent="ysctN_I-61C0ipcnWa4--31">
          <mxGeometry x="0.3" y="-2" relative="1" as="geometry">
            <mxPoint x="-11" y="-2" as="offset" />
          </mxGeometry>
        </mxCell>
        <mxCell id="ysctN_I-61C0ipcnWa4--39" value="Idade maior que &lt;br&gt;18 anos?" style="rhombus;whiteSpace=wrap;html=1;" vertex="1" parent="WIyWlLk6GJQsqaUBKTNV-1">
          <mxGeometry x="510" y="640" width="120" height="101.25" as="geometry" />
        </mxCell>
        <mxCell id="ysctN_I-61C0ipcnWa4--41" value="Vagas de 100 cadastros excedidas ?" style="rhombus;whiteSpace=wrap;html=1;" vertex="1" parent="WIyWlLk6GJQsqaUBKTNV-1">
          <mxGeometry x="710" y="628.28" width="150" height="124.69" as="geometry" />
        </mxCell>
        <mxCell id="ysctN_I-61C0ipcnWa4--45" value="" style="edgeStyle=elbowEdgeStyle;elbow=vertical;endArrow=classic;html=1;exitX=0.5;exitY=0;exitDx=0;exitDy=0;entryX=0;entryY=0;entryDx=90;entryDy=60;entryPerimeter=0;" edge="1" parent="WIyWlLk6GJQsqaUBKTNV-1" source="ysctN_I-61C0ipcnWa4--41" target="ysctN_I-61C0ipcnWa4--11">
          <mxGeometry width="50" height="50" relative="1" as="geometry">
            <mxPoint x="390" y="660" as="sourcePoint" />
            <mxPoint x="440" y="610" as="targetPoint" />
          </mxGeometry>
        </mxCell>
        <mxCell id="ysctN_I-61C0ipcnWa4--47" value="Não" style="text;html=1;strokeColor=none;fillColor=none;align=center;verticalAlign=middle;whiteSpace=wrap;rounded=0;" vertex="1" parent="WIyWlLk6GJQsqaUBKTNV-1">
          <mxGeometry x="630" y="565" width="40" height="20" as="geometry" />
        </mxCell>
        <mxCell id="ysctN_I-61C0ipcnWa4--48" value="&lt;font style=&quot;font-size: 24px&quot;&gt;Fim.&lt;br&gt;&lt;/font&gt;" style="rounded=1;whiteSpace=wrap;html=1;" vertex="1" parent="WIyWlLk6GJQsqaUBKTNV-1">
          <mxGeometry x="710" y="50" width="210" height="100" as="geometry" />
        </mxCell>
        <mxCell id="ysctN_I-61C0ipcnWa4--49" value="" style="edgeStyle=segmentEdgeStyle;endArrow=classic;html=1;" edge="1" parent="WIyWlLk6GJQsqaUBKTNV-1" target="ysctN_I-61C0ipcnWa4--50">
          <mxGeometry width="50" height="50" relative="1" as="geometry">
            <mxPoint x="860" y="690" as="sourcePoint" />
            <mxPoint x="880" y="490" as="targetPoint" />
          </mxGeometry>
        </mxCell>
        <mxCell id="ysctN_I-61C0ipcnWa4--50" value="Cadastro feito com sucesso." style="shape=display;whiteSpace=wrap;html=1;" vertex="1" parent="WIyWlLk6GJQsqaUBKTNV-1">
          <mxGeometry x="810" y="450" width="130" height="60" as="geometry" />
        </mxCell>
        <mxCell id="ysctN_I-61C0ipcnWa4--51" value="Sim" style="text;html=1;strokeColor=none;fillColor=none;align=center;verticalAlign=middle;whiteSpace=wrap;rounded=0;" vertex="1" parent="WIyWlLk6GJQsqaUBKTNV-1">
          <mxGeometry x="880" y="585" width="40" height="20" as="geometry" />
        </mxCell>
        <mxCell id="ysctN_I-61C0ipcnWa4--52" value="" style="endArrow=classic;html=1;exitX=0;exitY=0;exitDx=66.25;exitDy=0;exitPerimeter=0;entryX=0.786;entryY=1.01;entryDx=0;entryDy=0;entryPerimeter=0;" edge="1" parent="WIyWlLk6GJQsqaUBKTNV-1" source="ysctN_I-61C0ipcnWa4--50" target="ysctN_I-61C0ipcnWa4--48">
          <mxGeometry width="50" height="50" relative="1" as="geometry">
            <mxPoint x="470" y="450" as="sourcePoint" />
            <mxPoint x="520" y="400" as="targetPoint" />
          </mxGeometry>
        </mxCell>
        <mxCell id="ysctN_I-61C0ipcnWa4--53" value="" style="edgeStyle=segmentEdgeStyle;endArrow=classic;html=1;exitX=1;exitY=0.5;exitDx=0;exitDy=0;exitPerimeter=0;entryX=0.25;entryY=1;entryDx=0;entryDy=0;" edge="1" parent="WIyWlLk6GJQsqaUBKTNV-1" source="ysctN_I-61C0ipcnWa4--11" target="ysctN_I-61C0ipcnWa4--48">
          <mxGeometry width="50" height="50" relative="1" as="geometry">
            <mxPoint x="470" y="450" as="sourcePoint" />
            <mxPoint x="520" y="400" as="targetPoint" />
          </mxGeometry>
        </mxCell>
      </root>
    </mxGraphModel>
  </diagram>
</mxfile>
